<?xml version="1.0" encoding="UTF-8" standalone="no"?>
<!-- Created with Inkscape (http://www.inkscape.org/) -->

<svg
   xmlns:dc="http://purl.org/dc/elements/1.1/"
   xmlns:cc="http://creativecommons.org/ns#"
   xmlns:rdf="http://www.w3.org/1999/02/22-rdf-syntax-ns#"
   xmlns:svg="http://www.w3.org/2000/svg"
   xmlns="http://www.w3.org/2000/svg"
   xmlns:sodipodi="http://sodipodi.sourceforge.net/DTD/sodipodi-0.dtd"
   xmlns:inkscape="http://www.inkscape.org/namespaces/inkscape"
   width="1300"
   height="300"
   id="svg2"
   version="1.1"
   inkscape:version="0.48.4 r9939"
   sodipodi:docname="Sword-Left_vector_V8.svg">
  <defs
     id="defs4" />
  <sodipodi:namedview
     id="base"
     pagecolor="#ffffff"
     bordercolor="#666666"
     borderopacity="1.0"
     inkscape:pageopacity="0.0"
     inkscape:pageshadow="2"
     inkscape:zoom="0.35"
     inkscape:cx="187.55862"
     inkscape:cy="687.91817"
     inkscape:document-units="px"
     inkscape:current-layer="svg2"
     showgrid="false"
     inkscape:window-width="1680"
     inkscape:window-height="978"
     inkscape:window-x="0"
     inkscape:window-y="49"
     inkscape:window-maximized="1"
     width="1200px" />
  <metadata
     id="metadata7">
    <rdf:RDF>
      <cc:Work
         rdf:about="">
        <dc:format>image/svg+xml</dc:format>
        <dc:type
           rdf:resource="http://purl.org/dc/dcmitype/StillImage" />
        <dc:title></dc:title>
      </cc:Work>
    </rdf:RDF>
  </metadata>
  <g
     inkscape:groupmode="layer"
     id="layer2"
     inkscape:label="Layer"
     transform="translate(0,-752.36219)">
    <g
       id="g3090" />
  </g>
  <g
     id="g3126"
     transform="matrix(-0.57634909,-0.8172036,-0.8172036,0.57634909,1305.6712,133.25834)">
    <path
       style="fill:#b3b3b3;fill-opacity:1;stroke:#000000;stroke-width:0.80172598px;stroke-linecap:butt;stroke-linejoin:miter;stroke-opacity:1"
       d="m 371.53434,639.56245 c 27.58138,27.9265 35.59334,80.37074 -25.86048,35.42164 l 40.76864,59.8233 c 6.19341,-20.33751 20.26228,-13.04841 29.51888,14.65595 -2.42194,17.85416 18.63981,41.48828 30.44525,56.41909 0.10734,-11.73156 -1.0126,-24.99818 -3.39409,-39.84295 -3.38702,-8.06815 -6.95214,-15.71789 -9.95016,-24.69989 9.73175,7.67841 15.02633,17.17639 20.6625,24.0888 l -0.75398,6.94057 1.26972,13.68829 2.03627,17.3153 0.61144,16.26865 1.15361,15.12416 -21.63835,-26.31957 -19.0164,-24.98345 -7.82418,-19.61403 -3.02658,-14.60117 -9.55964,-17.21711 -2.01492,2.27797 -0.62967,3.41774 -1.53094,15.35672 -11.53679,-15.80326 -18.54344,-27.25763 -15.93067,-24.22003 -16.92849,-24.58976 -5.27279,-9.06596 14.09925,9.13739 27.4228,16.34926 9.71386,4.18997 4.09177,-0.95379 4.38667,-5.39424 -1.25304,-12.30589 -8.68547,-18.49535"
       id="path3803"
       inkscape:connector-curvature="0"
       sodipodi:nodetypes="ccccccccccccccccccccccccccccccccc" />
    <path
       style="fill:#b3b3b3;fill-opacity:1;stroke:#000000;stroke-width:0.80172598px;stroke-linecap:butt;stroke-linejoin:miter;stroke-opacity:1"
       d="M 56.839705,26.398576 C 51.853588,121.34568 86.005756,323.90294 152.70478,376.532 l 0.82238,7.66312 1.92652,9.45569 5.87418,29.84969 -5.79733,-6.1536 -10.48826,-16.45718 -15.56187,-25.60332 -12.71681,-25.43752 -14.53849,-31.10901 -14.659659,-37.15683 -12.0305,-38.29315 -9.926857,-36.90257 -7.535595,-37.48 -4.790956,-34.88138 -3.931563,-36.771029 -1.805607,-31.685157 -0.306142,-32.752239 0.98939,-19.383048 8.93974,13.76256 -0.285613,-0.589162 0.0024,0.317365 0.0837,-0.43886 c 0,0 -0.131564,-0.110999 -0.194591,-0.07596 -0.06289,0.03525 0.133585,0.283818 0.133585,0.283818 l -0.405907,-0.193407 0.333244,-0.298244 -0.107552,0.188021 0.213519,0.338451 0.124047,0.451658 -0.405779,-0.14523 0.278248,-0.362904 0.10824,0.747444"
       id="path3801"
       inkscape:connector-curvature="0"
       sodipodi:nodetypes="cc" />
    <path
       style="fill:#b3b3b3;stroke:#000000;stroke-width:0.80172598px;stroke-linecap:butt;stroke-linejoin:miter;stroke-opacity:1"
       d="m 325.77294,614.47168 -33.05086,-13.0788 -88.45268,-131.83228 -9.44151,-99.29926 -6.74549,-7.93246 -0.0166,6.88852 1.19353,15.28974 1.38556,20.77844 3.02056,35.9449 2.14653,32.14975 16.40159,22.96932 11.56597,17.33219 10.82832,15.50113 9.47902,13.37079 12.37523,17.71557 16.19555,23.2706 14.41255,20.60558 4.12939,5.1031 12.16653,5.41242 15.26592,4.43669 9.01797,1.66041 4.40109,0.90096 z"
       id="path3799"
       inkscape:connector-curvature="0" />
    <path
       style="font-size:medium;font-style:normal;font-variant:normal;font-weight:normal;font-stretch:normal;text-indent:0;text-align:start;text-decoration:none;line-height:normal;letter-spacing:normal;word-spacing:normal;text-transform:none;direction:ltr;block-progression:tb;writing-mode:lr-tb;text-anchor:start;baseline-shift:baseline;color:#000000;fill:#000000;fill-opacity:1;stroke:none;stroke-width:3;marker:none;visibility:visible;display:inline;overflow:visible;enable-background:accumulate;font-family:Sans;-inkscape-font-specification:Sans"
       d="m 46.945662,8.3939654 -0.1715,4.0666326 C 39.149197,182.59899 92.310768,330.33596 160.71598,426.65589 l 1.96918,-1.41451 C 95.159967,330.16065 42.505415,184.48955 49.078026,16.637474 78.776446,66.633357 116.4091,115.87784 182.22848,198.44889 c -2.78145,-0.49227 -6.16809,-1.78574 -9.46196,-3.37309 -4.38493,-2.11314 -8.60782,-4.64421 -11.54368,-6.1269 -0.0194,-0.0112 -0.0457,-0.0167 -0.0653,-0.0277 -15.33398,-8.92475 -28.15899,-30.71046 -39.1201,-46.68892 -0.0102,-0.0164 -0.032,-0.0207 -0.042,-0.0371 -2.60914,-4.28052 -6.32445,-6.78687 -10.4218,-7.76728 -4.11302,-0.98414 -8.57962,-0.47288 -12.800816,1.07812 -8.442393,3.10202 -16.080458,10.32408 -18.237567,18.96135 -5.17956,19.91992 3.478064,44.60878 16.679015,64.66959 6.600478,10.03039 14.351438,18.90112 22.212398,25.43621 7.86094,6.5351 15.80898,10.77784 22.95949,11.3329 l 0.0791,-0.004 0.0791,-0.004 c 7.33839,-0.37018 12.35908,-2.63363 15.30036,-6.2717 2.94131,-3.63805 3.68245,-8.48014 2.98135,-13.65283 -1.40219,-10.34537 -8.45481,-22.35222 -16.75074,-31.25578 -5.95179,-6.59883 -10.89164,-10.01476 -15.00345,-11.16163 -4.11179,-1.14687 -7.51647,0.27264 -9.24146,3.07459 -1.725,2.80195 -1.98091,6.69991 -1.00645,10.77745 0.33743,1.41203 0.88123,2.85591 1.53179,4.27183 -6.48473,-6.07691 -9.83142,-11.81712 -10.75023,-16.49442 -1.20235,-6.12065 1.33669,-10.44699 6.3573,-12.44679 5.0206,-1.99981 12.71205,-1.43767 21.46976,3.34371 8.75771,4.78138 18.55641,13.76103 27.69067,28.30729 l 0.0607,0.0836 0.0607,0.0835 c 0.78077,0.8538 1.87972,1.34231 3.22848,1.77861 1.34876,0.4363 2.96744,0.77643 4.78064,1.07231 3.62644,0.59174 8.0385,0.98838 12.41137,1.37465 4.37286,0.38628 8.72352,0.75687 12.13666,1.29625 1.70657,0.26968 3.17234,0.60055 4.27324,0.95259 1.10093,0.35203 1.79813,0.77608 1.95638,0.96755 l 0.009,0.0232 c 46.89968,55.50255 83.10231,108.45029 119.52947,159.53179 l -4.54242,-0.68208 -2.64353,-0.39364 1.471,2.24351 c 24.29773,37.06722 60.81421,72.66019 70.9081,110.512 l 0.0941,0.36726 0.30762,0.22721 c 15.05354,12.5215 30.14126,24.92296 38.68529,40.11148 1.55246,6.89666 2.40978,12.5048 5.90515,23.30809 l 0.0986,0.31144 0.24242,0.19946 c 6.9164,6.25181 13.72919,13.44297 20.36858,22.93772 -2.30615,14.51798 -2.01363,34.3769 0.0907,46.55648 l 2.38107,-0.39198 c -2.05886,-11.91624 -2.37341,-32.13688 -0.0436,-46.30535 l 0.0733,-0.48868 -0.27086,-0.40409 c -6.75056,-9.7223 -13.71494,-17.05375 -20.72344,-23.41605 -3.39624,-10.55568 -4.23469,-16.02574 -5.81601,-23.01987 l -0.0425,-0.172 -0.0793,-0.1301 c -8.79585,-15.73663 -24.07618,-28.22284 -39.08687,-40.706 -10.29784,-37.91739 -45.513,-72.76547 -69.50293,-108.56608 l 4.55178,0.70533 2.81105,0.40719 -1.65725,-2.30356 C 290.19052,330.70315 253.56956,276.91597 205.87464,220.47234 c -0.72809,-0.88098 -1.75529,-1.32733 -3.0516,-1.74186 -1.2963,-0.4145 -2.87504,-0.73627 -4.65025,-1.0168 -3.55038,-0.56106 -7.91957,-0.9563 -12.29031,-1.34237 -4.37072,-0.38609 -8.74793,-0.76894 -12.23445,-1.33788 -1.74328,-0.28445 -3.26636,-0.6233 -4.4269,-0.99873 -1.14393,-0.37003 -1.90458,-0.81736 -2.17071,-1.09731 -9.27598,-14.71597 -19.27945,-23.97079 -28.44598,-28.97538 -9.20505,-5.0256 -17.60636,-5.81859 -23.54036,-3.45496 -5.93401,2.36364 -9.21388,8.12864 -7.83482,15.14883 1.37194,6.98394 7.06395,15.20383 18.42068,23.53334 0.0164,0.012 0.0257,0.0251 0.042,0.0371 0.0428,0.0313 0.0737,0.0568 0.11652,0.088 7.6108,5.0687 4.62946,1.65127 1.55405,-1.8415 -3.28395,-3.11704 -5.34756,-6.97283 -6.21364,-10.59694 -0.86611,-3.6241 -0.51189,-6.97787 0.72702,-8.99025 1.23891,-2.0124 3.16021,-2.95357 6.53638,-2.01187 3.37614,0.94167 8.10067,4.04442 13.88046,10.45257 l 0.009,0.0232 c 8.01685,8.60405 14.85872,20.45133 16.14741,29.95924 0.64434,4.75396 -0.0724,8.82247 -2.48342,11.80459 -2.39078,2.95714 -6.58153,5.01864 -13.38573,5.39235 -0.0113,-5.4e-4 -0.0217,-0.0131 -0.0325,-0.014 -6.32289,-0.5022 -13.96738,-4.41317 -21.58983,-10.74998 -7.63553,-6.34769 -15.25436,-15.07484 -21.736613,-24.9256 C 86.256506,198.1146 77.968029,173.87974 82.858435,155.07185 l 0.02313,-0.009 c 1.904851,-7.62717 8.987425,-14.45541 16.720314,-17.29673 3.866431,-1.42065 7.858281,-1.84783 11.400611,-1.00026 3.54233,0.84759 6.67156,2.9219 8.97702,6.72868 l 0.009,0.0233 0.0186,0.0465 c 10.89335,15.87433 23.67392,38.00401 40.00132,47.46836 l 0.0325,0.0139 0.0325,0.014 c 2.77931,1.39965 7.10475,3.98222 11.64147,6.16852 4.53675,2.1863 9.25736,4.04447 13.23618,3.82446 l 2.32591,-0.12662 -1.46065,-1.81554 C 117.26942,113.15427 79.219272,63.447787 49.01063,11.910792 z"
       id="path3765"
       inkscape:connector-curvature="0"
       sodipodi:nodetypes="ccccccsccccsscsscccsscssscssscccssssscccccccccccccccccccccccccccccssssscsssccccsssccssccssccssccccccsccccc" />
    <path
       style="font-size:medium;font-style:normal;font-variant:normal;font-weight:normal;font-stretch:normal;text-indent:0;text-align:start;text-decoration:none;line-height:normal;letter-spacing:normal;word-spacing:normal;text-transform:none;direction:ltr;block-progression:tb;writing-mode:lr-tb;text-anchor:start;baseline-shift:baseline;color:#000000;fill:#000000;fill-opacity:1;stroke:none;stroke-width:3;marker:none;visibility:visible;display:inline;overflow:visible;enable-background:accumulate;font-family:Sans;-inkscape-font-specification:Sans"
       d="m 422.37416,522.42277 -0.45952,2.34593 c 18.18375,3.49035 32.87279,10.51481 47.15463,18.08947 16.11915,10.47244 29.81207,26.43747 41.19169,52.90411 -9.43335,-7.3894 -18.12723,-13.62922 -25.94069,-18.53218 l -1.54227,-0.94533 -0.27942,1.78722 c -4.06378,25.2176 5.97982,49.79832 19.12847,69.40905 13.14864,19.61073 29.36357,34.25218 38.19143,39.82422 l -0.0231,0.009 c 13.65294,8.69479 27.24546,15.72211 43.40461,23.73272 12.41461,23.27934 26.93776,46.33737 40.65419,69.00279 -10.42679,-12.4713 -20.54593,-27.07716 -32.67099,-38.72581 -15.44212,-14.83538 -34.44833,-24.65566 -61.32597,-18.13387 l 2.05185,1.63028 c 26.09679,-6.3323 42.47178,3.7055 57.59419,18.23375 15.12241,14.52822 27.25313,34.27903 41.29698,48.40497 4.52545,4.59243 8.04416,7.87124 1.89459,-1.4655 -15.6053,-26.33529 -33.13304,-53.33628 -47.54444,-80.40758 l -0.19623,-0.35311 -0.33538,-0.16202 c -16.30323,-8.07754 -29.86879,-15.10914 -43.51177,-23.7976 l -0.0233,0.009 c -8.33088,-5.25837 -24.513,-19.83776 -37.45934,-39.14677 -12.60166,-18.79492 -22.07123,-42.06419 -18.95203,-65.75268 8.36415,5.34143 17.499,11.83523 27.78218,20.08624 l 3.58941,2.87572 -1.7132,-4.25276 c -11.88198,-29.48965 -26.59022,-47.00377 -44.04754,-58.31685 l -0.0419,-0.0371 -0.0325,-0.0138 c -14.34224,-7.60666 -29.3004,-14.74422 -47.83439,-18.30181 z"
       id="path3767"
       inkscape:connector-curvature="0"
       sodipodi:nodetypes="cccccccsccccsccscccccccsccccccccc" />
    <path
       style="fill:none;stroke:#000000;stroke-width:2.40517807;stroke-linecap:butt;stroke-linejoin:miter;stroke-miterlimit:4;stroke-opacity:1;stroke-dasharray:none"
       d="m 530.65259,723.04243 c 38.97507,32.07308 63.1119,85.84262 94.38431,129.17846 l 69.80655,102.84544 c 11.08609,20.46713 18.59686,61.94067 -12.89159,78.53457 0.79576,-81.14044 -46.85901,-25.9879 -41.58828,15.2152 -7.28482,-6.2273 -10.83687,-12.6478 -11.78293,-17.342 -4.07222,-18.9197 4.67646,-36.61783 10.53848,-47.84792 -11.57503,-12.29217 -21.51035,-23.88629 -28.13089,-34.0694 19.46074,-1.50576 31.81295,-9.20942 27.85146,-18.64118 -7.95013,-14.73461 -26.03863,-3.94243 -41.65612,0.62834 -6.89321,-8.13535 -11.76757,-14.98348 -13.13179,-19.59363 15.49453,-6.0823 38.52465,-7.10427 32.80195,-23.69129 -12.84617,-18.29683 -32.14351,-0.93264 -48.87088,2.22506 -4.34111,-7.57689 -10.3129,-12.99721 -17.33638,-17.02669 l 44.39929,-16.57623 c -3.59188,-8.3302 -8.11865,-15.60346 -15.0881,-20.11515 -16.87111,3.74193 -35.09258,8.49931 -42.30234,13.11216 -3.61438,-5.98696 -7.43365,-17.55747 -16.90913,-26.80299"
       id="path3777"
       inkscape:connector-curvature="0"
       sodipodi:nodetypes="cccccccccccccccccc" />
    <path
       style="fill:none;stroke:#000000;stroke-width:2.40517807;stroke-linecap:butt;stroke-linejoin:miter;stroke-miterlimit:4;stroke-opacity:1;stroke-dasharray:none"
       d="m 540.11741,848.46855 c 3.91743,7.96679 7.53619,16.11969 15.74249,23.36974"
       id="path3779"
       inkscape:connector-curvature="0"
       sodipodi:nodetypes="cc" />
    <path
       style="fill:none;stroke:#000000;stroke-width:2.40517807;stroke-linecap:butt;stroke-linejoin:miter;stroke-miterlimit:4;stroke-opacity:1;stroke-dasharray:none"
       d="m 570.38777,889.95184 c 3.61838,7.4206 8.3995,14.8848 15.4299,21.50543"
       id="path3781"
       inkscape:connector-curvature="0"
       sodipodi:nodetypes="cc" />
    <path
       style="fill:none;stroke:#000000;stroke-width:2.40517807;stroke-linecap:butt;stroke-linejoin:miter;stroke-miterlimit:4;stroke-opacity:1;stroke-dasharray:none"
       d="m 598.76163,931.12648 c 3.53302,6.71775 7.62224,12.63561 13.09931,19.14913"
       id="path3783"
       inkscape:connector-curvature="0"
       sodipodi:nodetypes="cc" />
    <path
       style="fill:#000000;stroke:#000000;stroke-width:0.80172598px;stroke-linecap:butt;stroke-linejoin:miter;stroke-opacity:1"
       d="m 546.55583,861.13555 4.15033,-17.06049 14.3387,5.79247 3.60294,-10.29165 5.18544,-1.21582 14.79128,6.37412 -6.66872,17.31102 -15.60257,-7.57522 -1.86423,14.0659 z"
       id="path3785"
       inkscape:connector-curvature="0" />
    <path
       style="fill:#000000;stroke:#000000;stroke-width:0.80172598px;stroke-linecap:butt;stroke-linejoin:miter;stroke-opacity:1"
       d="m 575.48643,899.35747 4.63049,-12.88839 14.35828,6.11197 4.96963,-12.5884 8.85553,0.57989 5.7622,4.00882 3.81118,5.66781 -1.35201,8.29348 -3.48986,2.7156 -17.81839,-6.57357 -2.14592,14.17943 -13.79085,-4.70349 z"
       id="path3787"
       inkscape:connector-curvature="0" />
    <path
       style="fill:#000000;stroke:#000000;stroke-width:0.80172598px;stroke-linecap:butt;stroke-linejoin:miter;stroke-opacity:1"
       d="m 602.97067,938.05289 c -0.0952,-0.50737 2.08364,-8.91562 2.08364,-8.91562 l 8.86756,5.48626 4.22374,-10.10516 6.91614,-0.7125 12.09931,4.83918 -5.39326,16.14243 c 0,0 -15.90652,-8.87162 -16.05517,-8.15692 -0.14865,0.7147 0.46374,12.80069 0.46374,12.80069 l -5.15161,-0.32575 z"
       id="path3789"
       inkscape:connector-curvature="0" />
    <path
       style="font-size:medium;font-style:normal;font-variant:normal;font-weight:normal;font-stretch:normal;text-indent:0;text-align:start;text-decoration:none;line-height:normal;letter-spacing:normal;word-spacing:normal;text-transform:none;direction:ltr;block-progression:tb;writing-mode:lr-tb;text-anchor:start;baseline-shift:baseline;color:#000000;fill:#000000;fill-opacity:1;stroke:none;stroke-width:3;marker:none;visibility:visible;display:inline;overflow:visible;enable-background:accumulate;font-family:Sans;-inkscape-font-specification:Sans"
       d="m 489.19598,721.68955 c -5.22215,2.1856 -10.29336,5.11575 -14.92228,8.68535 -18.51569,14.27842 -30.0129,39.52437 -16.34999,71.6546 l 0.075,0.18593 0.11194,0.14398 c 13.75607,15.65356 26.809,23.58685 38.41338,25.95949 11.60437,2.37259 21.7226,-0.88218 29.31547,-7.35279 15.18572,-12.94113 20.58052,-38.46325 10.10767,-57.8496 l -0.0187,-0.0465 -0.0187,-0.0465 c -8.31626,-12.53478 -27.71215,-18.44637 -42.78146,-14.34102 -7.53467,2.05267 -14.03867,6.73347 -17.27629,14.4415 -3.23762,7.70804 -3.18074,18.30727 1.86515,32.12034 l 0.009,0.0232 0.0187,0.0465 c 2.08035,4.75634 6.92945,7.36179 12.27942,8.28846 5.34995,0.92668 11.2946,0.23085 16.13016,-1.7981 4.83554,-2.02897 8.68598,-5.52197 9.09356,-10.28081 0.4076,-4.75886 -2.62608,-10.23373 -10.40514,-16.17423 -2.68266,-1.25423 -8.81932,-5.49021 -1.47015,1.91572 7.4542,5.69242 9.80264,10.49139 9.49741,14.05496 -0.30523,3.56357 -3.28326,6.43573 -7.63765,8.26277 -4.35435,1.82711 -9.96575,2.48577 -14.81389,1.64599 -4.8187,-0.83465 -8.76777,-3.06648 -10.44275,-6.81348 -0.006,-0.0171 -0.0126,-0.0295 -0.0187,-0.0465 -0.003,-0.007 -0.006,-0.0155 -0.009,-0.0231 -4.88332,-13.40668 -4.80333,-23.31642 -1.87925,-30.27796 2.92966,-6.97481 8.71426,-11.14744 15.70253,-13.05125 13.94177,-3.79816 32.49745,1.93994 40.07107,13.24505 0.005,0.007 0.005,0.0169 0.009,0.0232 9.86691,18.29245 4.63458,42.74978 -9.56137,54.84744 -7.10088,6.05128 -16.36538,9.06371 -27.28364,6.8314 -10.87866,-2.22424 -23.45829,-9.74133 -36.92698,-25.01871 -13.18884,-31.19169 -2.13114,-54.95613 15.65942,-68.67537 17.82215,-13.74356 42.40508,-16.98856 55.74191,-7.05923 l 1.43752,-1.92963 c -10.9839,-8.17756 -28.0562,-8.14808 -43.72263,-1.5911 z"
       id="path3791"
       inkscape:connector-curvature="0"
       sodipodi:nodetypes="cscccsscccsscccsssccssscccssccsscscccc" />
    <path
       style="fill:none;stroke:#000000;stroke-width:2.40517807;stroke-linecap:butt;stroke-linejoin:miter;stroke-miterlimit:4;stroke-opacity:1;stroke-dasharray:none"
       d="m 161.86065,426.47821 c -4.86992,-34.01961 -26.02759,-100.23238 2.90173,-115.92116 31.9271,-10.07523 71.53695,65.39351 99.20576,102.13429 3.12026,40.02808 10.7324,79.78092 16.12131,119.66994 l -54.39912,-65.5648 -1.84771,-59.75903 -36.37448,-45.85024 8.67495,111.95571 92.95136,134.18735 c 3.34434,3.19992 26.30267,12.16788 43.88791,14.60843 -11.36658,-10.81179 -19.55833,-18.97087 -28.34452,-29.18124 -8.45348,-14.13943 4.18775,-29.33378 11.40962,-38.8658 l 59.81837,92.681 c 8.02466,11.77363 16.73284,44.46116 -7.81557,32.6159 l -45.22341,-28.27517 70.29691,103.52094 c -0.6646,-12.50424 1.34229,-20.35459 3.0271,-22.82889 12.05028,13.38016 12.18803,29.10342 16.38043,41.204 5.21616,15.56006 28.77411,40.45631 45.15483,61.69924 l -1.9456,-42.21687"
       id="path3797"
       inkscape:connector-curvature="0"
       sodipodi:nodetypes="cccccccccccccccccccc" />
    <path
       style="fill:#000000;stroke:#000000;stroke-width:0.80172598px;stroke-linecap:butt;stroke-linejoin:miter;stroke-opacity:1"
       d="m 431.27714,735.89951 c -18.5254,-17.5417 -19.53176,-61.9036 -22.15148,-87.22761 -2.79882,-38.98828 -23.15528,-61.49072 -38.88306,-87.58144 l -22.50219,-38.51963 52.3936,69.9153 c 19.45431,27.45742 20.84448,49.48908 20.77724,71.08299 -0.27513,23.80848 5.86658,48.13585 10.36589,72.33039 z"
       inkscape:connector-curvature="0"
       sodipodi:nodetypes="ccccccc"
       id="path3082" />
    <path
       style="fill:none;stroke:#000000;stroke-width:0.80172598px;stroke-linecap:butt;stroke-linejoin:miter;stroke-opacity:1"
       d="m 497.33534,720.52979 c -42.09196,-9.47402 -87.75238,-73.65024 -41.66401,-94.75572 32.48955,3.25875 6.18252,45.03274 -5.61,12.08243 l 0.18083,-2.23025 c -21.45697,36.49148 14.69168,67.65598 55.05914,83.00417"
       id="path3825"
       inkscape:connector-curvature="0"
       sodipodi:nodetypes="ccccc" />
    <path
       style="fill:#000000;stroke:#000000;stroke-width:0.80172598px;stroke-linecap:butt;stroke-linejoin:miter;stroke-opacity:1"
       d="m 449.82314,636.11585 c 11.63373,-12.99224 30.90906,17.57909 2.94081,7.6368"
       id="path3827"
       inkscape:connector-curvature="0"
       sodipodi:nodetypes="cc" />
    <path
       id="path3086"
       sodipodi:nodetypes="ccccccccccc"
       inkscape:connector-curvature="0"
       d="m 496.01297,685.72873 -32.93441,-8.95836 c 0.56069,19.73998 44.11526,23.41682 71.48022,29.54733 -20.4398,-20.11287 -63.69077,-63.59636 -61.46317,-129.58544 l 9.95269,4.0166 0.27074,-3.11044 c -11.78847,-23.33175 -34.35139,-35.1351 -50.04491,-43.0526 7.94112,14.55068 19.92192,27.47405 32.39943,40.19731 -4.40954,55.16521 34.98027,105.2103 50.09001,120.89329 -3.47643,19.15217 -54.59384,-11.36211 -49.02013,-16.12468 z"
       style="fill:#000000;stroke:#000000;stroke-width:2.40517807;stroke-linecap:butt;stroke-linejoin:miter;stroke-miterlimit:4;stroke-opacity:1;stroke-dasharray:none" />
    <path
       sodipodi:nodetypes="cc"
       inkscape:connector-curvature="0"
       id="path3817"
       d="m 466.94685,685.73279 c 6.83292,7.22053 29.97382,18.21671 51.64337,16.84871"
       style="fill:none;stroke:#000000;stroke-width:2.40517807;stroke-linecap:butt;stroke-linejoin:miter;stroke-miterlimit:4;stroke-opacity:1;stroke-dasharray:none" />
    <path
       sodipodi:nodetypes="ccccc"
       inkscape:connector-curvature="0"
       id="path3819"
       d="m 487.28559,682.48368 -0.54794,2.32755 8.86799,2.09979 c 3.33823,-0.0593 6.34521,0.56927 0.62425,-2.37758 z"
       style="font-size:medium;font-style:normal;font-variant:normal;font-weight:normal;font-stretch:normal;text-indent:0;text-align:start;text-decoration:none;line-height:normal;letter-spacing:normal;word-spacing:normal;text-transform:none;direction:ltr;block-progression:tb;writing-mode:lr-tb;text-anchor:start;baseline-shift:baseline;color:#000000;fill:#000000;fill-opacity:1;stroke:none;stroke-width:3;marker:none;visibility:visible;display:inline;overflow:visible;enable-background:accumulate;font-family:Sans;-inkscape-font-specification:Sans" />
  </g>
</svg>
